# xmcd
#
# Track frame offsets: 
#        150
#        16319
#        35768
#        55856
#        74454
#        93464
#        112803
#        131513
#        149981
#        167594
#        183633
#        202932
#        219663
#        236933
#        252817
#        273115
#        289656
#
# Disc length: 4128 seconds
#
# Revision: 3
# Processed by: cddbd v1.5.2PL0 Copyright (c) Steve Scherf et al.
# Submitted via: ExactAudioCopy v0.99pb5
#
DISCID=04101e11
DTITLE=Various Artist - Génération 90 | CD2
DYEAR=2010
DGENRE=Compilation
TTITLE0=TLC - No scrubs
TTITLE1=The Fugees - No woman, no cry
TTITLE2=Toni Braxton - Un-break my heart
TTITLE3=Shaggy - Boombastic
TTITLE4=Luniz - I got 5 on it
TTITLE5=Diana King - Shy guy
TTITLE6=Ini Kamoze - Here comes the hotstepper
TTITLE7=Arrested Development - People everyday
TTITLE8=Boyz II Men - I'll make love to you
TTITLE9=Des'ree - Life
TTITLE10=Eternal - I wanna be the only one
TTITLE11=MC Hammer - U can't touch this
TTITLE12=Reel 2 Real - I like to move it
TTITLE13=Salt'n Pepa - Let's talk about sex
TTITLE14=Vanilla Ice - Ice ice baby
TTITLE15=MN8 - I've got a little something for you
TTITLE16=New Kids on the Block - Step by step
EXTD=
EXTT0=
EXTT1=
EXTT2=
EXTT3=
EXTT4=
EXTT5=
EXTT6=
EXTT7=
EXTT8=
EXTT9=
EXTT10=
EXTT11=
EXTT12=
EXTT13=
EXTT14=
EXTT15=
EXTT16=
PLAYORDER=
